<?xml version="1.0" standalone="no"?>
<!DOCTYPE svg PUBLIC "-//W3C//DTD SVG 20010904//EN"
 "http://www.w3.org/TR/2001/REC-SVG-20010904/DTD/svg10.dtd">
<svg version="1.0" xmlns="http://www.w3.org/2000/svg"
 width="388.000000pt" height="388.000000pt" viewBox="0 0 388.000000 388.000000"
 preserveAspectRatio="xMidYMid meet">
<metadata>
Created by potrace 1.11, written by Peter Selinger 2001-2013
</metadata>
<g transform="translate(0.000000,388.000000) scale(0.100000,-0.100000)"
fill="#000000" stroke="none">
<path d="M1712 3443 c2 -15 -5 -18 -42 -20 -25 -1 -39 0 -32 3 23 10 12 21
-18 16 -33 -5 -51 -39 -29 -53 12 -7 11 -9 -1 -9 -8 0 -25 -3 -37 -6 -18 -5
-23 -2 -23 14 0 11 6 23 13 26 6 3 3 4 -8 2 -11 -2 -38 -7 -59 -11 -28 -5 -36
-9 -26 -15 8 -5 12 -10 10 -12 -12 -9 -78 -28 -95 -28 -10 0 -27 -7 -37 -17
-11 -9 -18 -11 -18 -5 0 7 -4 12 -10 12 -5 0 -10 -7 -10 -15 0 -8 -8 -15 -18
-15 -21 0 -64 -28 -58 -39 3 -4 -9 -13 -25 -20 -27 -12 -32 -11 -43 4 -9 13
-15 15 -20 7 -4 -7 -4 -16 -1 -22 3 -5 -1 -10 -10 -10 -10 0 -14 5 -10 13 4 6
-2 2 -12 -10 -10 -12 -36 -34 -58 -49 -22 -15 -49 -35 -60 -46 -11 -11 -56
-48 -100 -82 -155 -122 -288 -283 -394 -479 -23 -44 -39 -82 -35 -85 4 -4 9
-1 12 7 2 7 12 20 22 29 10 8 16 22 12 30 -3 9 -1 13 5 9 6 -4 17 6 25 21 51
101 104 185 125 199 13 9 31 29 39 45 23 44 85 109 97 101 5 -3 7 -1 4 4 -8
13 62 86 119 125 21 15 65 45 97 67 64 45 73 50 179 103 142 71 242 104 407
134 57 11 97 20 87 22 -9 2 -14 8 -11 13 9 14 19 11 43 -11 12 -12 22 -16 22
-10 0 5 16 10 35 10 19 0 35 4 35 9 0 5 9 11 21 14 18 5 19 8 7 26 -10 17 -23
21 -66 21 -45 0 -52 -3 -50 -17z m78 -33 c0 -5 -15 -10 -32 -9 -31 1 -32 1 -8
9 35 11 40 11 40 0z"/>
<path d="M1842 3438 c15 -22 23 -23 146 -26 127 -3 130 -2 125 18 -6 21 -27
27 -38 10 -3 -5 -11 -10 -16 -10 -6 0 -7 4 -4 10 3 5 0 7 -8 4 -8 -3 -18 -1
-22 5 -4 7 -45 11 -102 11 l-95 0 14 -22z"/>
<path d="M2132 3420 c7 -11 20 -19 28 -18 8 1 21 -1 28 -6 7 -4 16 -5 20 -1
11 11 -38 45 -64 45 -22 0 -23 -2 -12 -20z"/>
<path d="M1850 3396 c0 -2 14 -6 30 -8 17 -3 30 -1 30 4 0 4 -13 8 -30 8 -16
0 -30 -2 -30 -4z"/>
<path d="M2281 3387 c-15 -18 1 -32 49 -42 19 -4 40 -11 45 -15 6 -4 31 -13
58 -20 26 -7 50 -17 53 -21 7 -11 24 -12 24 -1 0 4 -16 14 -35 21 -19 7 -35
19 -35 27 0 8 -4 12 -10 9 -16 -10 -90 15 -90 30 0 8 -4 15 -9 15 -5 0 -16 2
-24 5 -7 3 -19 0 -26 -8z"/>
<path d="M2095 3370 c27 -12 35 -12 35 0 0 6 -12 10 -27 9 -25 0 -26 -1 -8 -9z"/>
<path d="M2150 3360 c0 -6 4 -9 8 -6 7 4 88 -15 181 -43 19 -6 37 -9 39 -6 4
4 -141 49 -195 60 -22 4 -33 3 -33 -5z"/>
<path d="M2560 3296 c0 -2 7 -9 15 -16 9 -7 15 -8 15 -2 0 5 -7 12 -15 16 -8
3 -15 4 -15 2z"/>
<path d="M2450 3270 c19 -11 42 -19 50 -19 8 0 -3 9 -25 19 -53 24 -70 24 -25
0z"/>
<path d="M2610 3260 c0 -5 5 -10 11 -10 5 0 7 5 4 10 -3 6 -8 10 -11 10 -2 0
-4 -4 -4 -10z"/>
<path d="M2580 3245 c7 -8 18 -15 26 -15 7 0 17 -6 21 -13 4 -6 19 -18 33 -25
38 -20 89 -64 65 -56 -11 4 -17 4 -14 0 4 -4 17 -9 29 -11 13 -3 28 -10 34
-16 8 -9 7 -10 -4 -4 -13 8 -13 6 -1 -8 7 -9 17 -14 22 -11 5 3 9 0 9 -6 0 -6
4 -9 9 -6 4 3 16 -3 26 -14 10 -11 14 -20 10 -20 -5 0 6 -11 25 -25 30 -22
130 -124 130 -133 0 -2 14 -15 30 -29 17 -13 30 -31 30 -38 0 -8 6 -20 13 -27
31 -31 136 -222 167 -303 9 -23 12 -24 31 -14 12 6 18 14 13 18 -5 3 -9 13 -9
21 0 8 -5 14 -12 13 -7 -2 -10 4 -6 13 3 8 -2 21 -12 28 -10 7 -16 20 -13 27
3 8 -3 30 -13 49 -20 38 -25 36 -9 -4 6 -17 6 -26 0 -26 -5 0 -13 12 -16 28
-4 15 -11 32 -16 39 -5 7 -7 17 -3 22 6 11 -24 65 -32 57 -9 -8 -46 33 -48 51
-4 42 -19 65 -55 83 -26 13 -53 42 -87 93 -50 77 -132 157 -161 157 -9 0 -24
5 -32 11 -12 9 -11 10 5 5 20 -6 20 -6 1 9 -14 11 -22 12 -27 4 -4 -8 -13 -2
-24 15 -9 14 -21 23 -26 20 -5 -3 -9 2 -9 12 0 11 -6 15 -19 11 -15 -3 -18 -1
-14 12 4 13 3 13 -5 2 -9 -12 -14 -12 -36 2 -31 21 -42 22 -26 2z"/>
<path d="M2640 3181 c0 -9 30 -24 36 -18 2 1 -6 8 -16 15 -11 7 -20 8 -20 3z"/>
<path d="M651 2764 c0 -11 3 -14 6 -6 3 7 2 16 -1 19 -3 4 -6 -2 -5 -13z"/>
<path d="M1310 2649 c-203 -39 -367 -174 -430 -351 -31 -87 -39 -277 -16 -368
55 -218 218 -370 446 -416 65 -13 113 -15 205 -11 121 6 176 17 315 63 l75 24
1 143 c0 78 4 176 7 217 l7 75 -90 0 -90 0 0 -196 0 -197 -50 -21 c-169 -73
-391 -30 -514 98 -99 105 -140 216 -139 386 1 171 44 287 143 379 89 84 207
123 340 113 118 -8 183 -38 263 -119 38 -38 70 -68 72 -66 12 12 54 163 48
169 -18 17 -118 50 -212 69 -105 21 -294 26 -381 9z"/>
<path d="M466 2494 c-8 -21 -8 -24 3 -24 5 0 11 9 14 20 6 24 -8 27 -17 4z"/>
<path d="M412 2433 c-11 -27 -27 -72 -36 -100 -9 -29 -23 -75 -31 -102 -28
-92 -55 -282 -55 -389 0 -90 18 -236 45 -365 37 -181 176 -454 324 -637 34
-42 23 -6 -12 41 -43 56 -62 91 -59 107 2 6 -2 12 -8 12 -13 0 -49 40 -50 55
0 6 -10 26 -23 45 -13 19 -40 78 -61 130 -21 52 -42 104 -46 115 -8 18 -18 48
-27 80 -23 85 -44 262 -45 378 0 77 -5 137 -10 137 -5 0 -6 5 -2 12 6 10 8 27
13 106 1 10 5 9 17 -3 11 -11 15 -26 11 -50 -4 -27 -2 -33 11 -30 10 1 16 10
15 21 -4 43 28 246 55 352 16 61 25 112 21 112 -5 0 -9 -9 -9 -20 0 -11 -5
-20 -11 -20 -7 0 -8 11 -4 30 10 44 0 37 -23 -17z m14 -57 c-8 -18 -20 -66
-27 -105 -7 -39 -17 -71 -22 -71 -4 0 -5 15 -2 33 3 17 7 45 10 62 2 16 9 41
14 55 5 14 12 33 15 43 3 9 10 17 16 17 6 0 5 -13 -4 -34z m-46 -219 c0 -12
-9 -28 -21 -35 -19 -12 -19 -12 -8 10 7 13 12 24 11 26 -6 8 0 22 8 22 6 0 10
-10 10 -23z m-18 -79 c-7 -7 -12 -8 -12 -2 0 14 12 26 19 19 2 -3 -1 -11 -7
-17z"/>
<path d="M3260 2442 c0 -11 7 -33 15 -48 8 -16 15 -39 15 -51 0 -12 4 -24 8
-27 5 -3 14 -38 21 -78 7 -40 19 -103 27 -139 17 -81 18 -151 2 -167 -8 -8 -8
-15 1 -26 9 -10 11 -35 7 -78 -17 -169 -17 -170 2 -166 11 2 19 16 23 40 3 20
10 43 16 50 7 8 10 57 8 127 -2 93 -6 116 -19 123 -16 9 -23 58 -8 58 15 0 13
107 -3 172 -24 95 -59 185 -78 199 -5 3 -8 10 -7 15 0 5 -6 10 -14 12 -10 2
-16 -4 -16 -16z"/>
<path d="M2054 2305 c20 -43 202 -476 263 -623 l75 -182 -101 -195 c-56 -108
-101 -197 -101 -198 0 -1 29 -2 65 -2 62 0 66 1 72 25 29 123 319 796 482
1117 17 34 31 64 31 65 0 2 -30 2 -67 2 l-66 -2 -62 -179 c-71 -206 -155 -408
-170 -408 -10 0 -118 264 -193 471 l-42 119 -95 0 c-60 0 -94 -4 -91 -10z"/>
<path d="M371 1904 c0 -11 3 -14 6 -6 3 7 2 16 -1 19 -3 4 -6 -2 -5 -13z"/>
<path d="M365 1851 c-3 -5 -1 -12 5 -16 5 -3 10 1 10 9 0 18 -6 21 -15 7z"/>
<path d="M372 1730 c2 -25 7 -44 13 -42 12 3 7 63 -6 77 -7 7 -9 -6 -7 -35z"/>
<path d="M3385 1675 c-3 -31 -4 -59 -2 -62 3 -2 9 21 12 52 4 31 5 58 2 61 -2
3 -8 -20 -12 -51z"/>
<path d="M378 1633 c-5 -35 13 -148 28 -183 4 -8 8 -23 9 -32 3 -26 15 -35 24
-19 7 11 11 9 21 -9 6 -12 14 -19 17 -16 9 9 -17 64 -33 70 -8 3 -14 13 -14
23 0 16 2 16 11 3 9 -12 10 -12 5 4 -4 10 -11 39 -17 65 -6 25 -13 53 -17 61
-7 18 -9 29 -11 53 -2 32 -19 17 -23 -20z"/>
<path d="M3355 1639 c-4 -6 -5 -12 -2 -15 2 -3 7 2 10 11 7 17 1 20 -8 4z"/>
<path d="M3372 1580 c0 -14 2 -19 5 -12 2 6 2 18 0 25 -3 6 -5 1 -5 -13z"/>
<path d="M3331 1575 c-8 -65 -18 -88 -32 -79 -8 4 -9 3 -5 -4 4 -7 3 -12 -3
-12 -6 0 -8 -7 -4 -16 4 -10 0 -20 -9 -25 -17 -9 -93 -178 -84 -186 3 -3 11 7
17 23 6 16 13 23 16 17 3 -7 -5 -25 -16 -39 -12 -15 -21 -22 -21 -15 0 6 -4
11 -10 11 -5 0 -10 -9 -10 -20 0 -11 -3 -20 -8 -20 -4 0 -29 -35 -55 -78 -26
-44 -55 -87 -65 -98 -9 -10 -33 -39 -52 -64 -19 -25 -52 -62 -75 -84 -22 -21
-68 -66 -103 -99 -35 -33 -61 -66 -58 -73 3 -7 -2 -15 -10 -18 -8 -3 -14 -1
-14 5 0 6 -7 6 -20 -1 -11 -6 -20 -17 -20 -25 0 -8 -10 -21 -22 -29 -12 -9
-18 -19 -14 -23 4 -4 10 -3 14 3 7 11 42 27 42 20 0 -13 -70 -45 -85 -40 -13
5 -16 3 -13 -7 3 -8 -12 -24 -36 -39 -54 -34 -214 -103 -298 -129 -87 -26
-268 -61 -319 -61 -21 0 -39 -4 -39 -10 0 -29 275 26 451 90 186 69 443 230
490 308 8 15 24 27 34 27 10 0 23 8 29 19 6 10 21 30 34 44 12 14 22 28 22 32
0 4 11 13 25 20 14 7 25 18 25 24 0 6 14 25 30 43 17 18 30 35 30 39 0 4 17
30 38 58 43 58 67 110 57 125 -3 6 -2 11 4 11 5 0 11 -6 14 -12 5 -15 67 103
67 127 0 8 5 15 10 15 6 0 10 7 10 15 0 8 11 49 26 91 16 49 24 90 21 117 -2
23 -5 33 -6 22z"/>
<path d="M3355 1525 c-5 -17 -8 -33 -7 -38 1 -4 -4 -23 -12 -41 -8 -19 -12
-37 -8 -40 3 -3 0 -6 -6 -6 -7 0 -12 -11 -12 -25 0 -14 -16 -57 -35 -95 -19
-38 -35 -76 -35 -83 0 -8 -21 -48 -48 -88 -26 -41 -54 -87 -62 -104 -17 -34
-19 -36 -60 -84 -17 -19 -30 -38 -30 -43 0 -4 -5 -8 -11 -8 -5 0 -43 -34 -84
-75 -41 -41 -79 -75 -85 -75 -5 0 -10 -6 -10 -13 0 -7 -15 -21 -32 -31 -18
-11 -42 -28 -53 -40 -27 -28 -116 -96 -126 -96 -5 0 -38 -18 -74 -40 -36 -22
-69 -40 -74 -40 -5 0 -14 -7 -21 -15 -7 -8 -26 -15 -42 -15 -16 0 -36 -7 -45
-15 -8 -8 -19 -13 -24 -10 -5 4 -9 1 -9 -4 0 -6 -12 -11 -27 -11 -16 -1 -46
-8 -68 -16 -22 -9 -47 -16 -55 -16 -8 0 -21 -6 -29 -12 -11 -8 -15 -8 -18 1
-2 7 -11 9 -19 6 -13 -5 -13 -8 -2 -15 9 -7 4 -8 -14 -4 -22 5 -48 -8 -37 -18
10 -9 189 38 294 77 206 76 362 168 513 303 162 145 252 267 360 489 67 137
130 326 120 357 -3 7 -8 -1 -13 -17z"/>
<path d="M3301 1524 c0 -11 3 -14 6 -6 3 7 2 16 -1 19 -3 4 -6 -2 -5 -13z"/>
<path d="M478 1330 c-3 -19 -2 -36 3 -38 5 -2 9 -10 9 -19 0 -8 9 -26 20 -40
11 -14 17 -29 15 -33 -3 -5 -1 -11 5 -15 22 -14 21 27 -3 77 -13 29 -29 64
-34 78 -10 25 -10 24 -15 -10z"/>
<path d="M559 1135 c18 -38 26 -43 35 -19 7 18 -19 54 -39 54 -9 0 -8 -10 4
-35z"/>
<path d="M650 1016 c0 -8 4 -17 10 -21 5 -3 7 -12 4 -19 -6 -17 87 -128 152
-181 27 -22 58 -48 69 -58 37 -33 198 -137 214 -137 8 0 0 11 -19 25 -19 14
-35 33 -35 43 0 12 -7 16 -25 14 -17 -1 -21 1 -12 6 10 7 -1 18 -38 42 -27 18
-58 42 -68 54 -9 12 -31 33 -49 46 -18 13 -39 38 -48 56 -18 39 -31 49 -41 33
-4 -7 2 -19 13 -28 20 -16 38 -51 26 -51 -9 0 -93 93 -93 104 0 2 8 7 18 9 14
4 13 6 -6 12 -12 4 -29 20 -38 36 -15 31 -34 39 -34 15z m224 -226 c17 -36 11
-38 -21 -8 -26 25 -29 38 -9 38 8 0 21 -13 30 -30z m106 -80 c0 -5 -2 -10 -4
-10 -3 0 -8 5 -11 10 -3 6 -1 10 4 10 6 0 11 -4 11 -10z"/>
<path d="M696 822 c-11 -18 8 -45 83 -111 149 -133 349 -261 460 -296 48 -15
9 15 -72 55 -93 47 -113 58 -141 83 -11 9 -28 17 -38 17 -10 0 -27 9 -38 20
-11 11 -22 20 -25 20 -8 0 -55 51 -55 60 0 6 -5 10 -11 10 -7 0 -44 34 -84 77
-45 47 -75 72 -79 65z"/>
<path d="M1070 652 c0 -5 18 -17 39 -27 21 -9 44 -27 49 -39 6 -11 11 -15 11
-8 1 7 6 10 11 7 6 -4 8 -10 5 -15 -6 -10 37 -42 51 -39 5 1 22 -3 37 -9 16
-7 33 -9 39 -6 7 4 8 2 4 -4 -7 -11 7 -16 42 -15 6 1 12 -3 12 -8 0 -13 28
-11 32 2 4 13 58 -9 58 -23 0 -5 9 -7 19 -3 29 9 71 -5 71 -24 0 -13 2 -13 9
-2 7 11 10 11 15 0 5 -11 7 -11 12 -1 8 17 34 15 56 -5 11 -9 18 -11 18 -5 0
7 5 12 10 12 6 0 10 -7 10 -15 0 -8 5 -15 10 -15 6 0 10 5 10 11 0 5 8 9 18 8
80 -8 55 16 -28 26 -158 19 -339 75 -507 156 -110 52 -113 54 -113 41z"/>
<path d="M997 609 c7 -7 15 -10 18 -7 3 3 -2 9 -12 12 -14 6 -15 5 -6 -5z"/>
<path d="M2510 549 c0 -5 5 -7 10 -4 6 3 10 8 10 11 0 2 -4 4 -10 4 -5 0 -10
-5 -10 -11z"/>
<path d="M2428 533 c7 -3 16 -2 19 1 4 3 -2 6 -13 5 -11 0 -14 -3 -6 -6z"/>
<path d="M2380 519 c0 -5 5 -7 10 -4 6 3 10 8 10 11 0 2 -4 4 -10 4 -5 0 -10
-5 -10 -11z"/>
<path d="M1830 430 c0 -5 -9 -10 -19 -10 -11 0 -23 -4 -26 -10 -6 -10 0 -12
35 -12 46 0 60 3 60 12 0 6 -7 10 -16 10 -8 0 -12 5 -9 10 3 6 -1 10 -9 10 -9
0 -16 -4 -16 -10z"/>
<path d="M1895 410 c-3 -5 -1 -10 4 -10 6 0 11 5 11 10 0 6 -2 10 -4 10 -3 0
-8 -4 -11 -10z"/>
<path d="M1335 380 c3 -5 18 -10 33 -9 24 0 25 1 7 9 -28 12 -47 12 -40 0z"/>
<path d="M1445 350 c11 -5 27 -9 35 -9 9 0 8 4 -5 9 -11 5 -27 9 -35 9 -9 0
-8 -4 5 -9z"/>
<path d="M1858 353 c12 -2 30 -2 40 0 9 3 -1 5 -23 4 -22 0 -30 -2 -17 -4z"/>
<path d="M1530 330 c8 -5 22 -10 30 -10 13 0 13 1 0 10 -8 5 -22 10 -30 10
-13 0 -13 -1 0 -10z"/>
<path d="M1866 322 c-4 -6 -22 -9 -42 -7 -23 2 -34 -1 -31 -9 3 -10 62 -12
175 -7 31 1 29 31 -3 31 -14 0 -25 -3 -25 -7 0 -12 -54 -13 -61 -1 -4 7 -9 7
-13 0z"/>
<path d="M1618 313 c7 -3 16 -2 19 1 4 3 -2 6 -13 5 -11 0 -14 -3 -6 -6z"/>
<path d="M1750 311 c0 -5 7 -11 15 -15 8 -3 15 -1 15 3 0 5 -7 11 -15 15 -8 3
-15 1 -15 -3z"/>
<path d="M2005 310 c3 -5 8 -10 11 -10 2 0 4 5 4 10 0 6 -5 10 -11 10 -5 0 -7
-4 -4 -10z"/>
<path d="M1673 303 c9 -2 23 -2 30 0 6 3 -1 5 -18 5 -16 0 -22 -2 -12 -5z"/>
</g>
</svg>
